<mxfile host="app.diagrams.net" agent="Mozilla/5.0 (Macintosh; Intel Mac OS X 10_15_7) AppleWebKit/537.36 (KHTML, like Gecko) Chrome/131.0.0.0 Safari/537.36" version="26.0.6">
  <diagram name="Seite-1" id="TvrrdAq2TgVtNNW3oGuC">
    <mxGraphModel dx="597" dy="435" grid="1" gridSize="10" guides="1" tooltips="1" connect="1" arrows="1" fold="1" page="1" pageScale="1" pageWidth="827" pageHeight="1169" math="0" shadow="0">
      <root>
        <mxCell id="0" />
        <mxCell id="1" parent="0" />
        <mxCell id="KZDxoFo9gupKd7PVNglU-1" value="«device» artpc17" style="verticalAlign=top;align=center;shape=cube;size=10;direction=south;html=1;boundedLbl=1;spacingLeft=5;whiteSpace=wrap;" vertex="1" parent="1">
          <mxGeometry x="38" y="130" width="190" height="210" as="geometry" />
        </mxCell>
        <mxCell id="KZDxoFo9gupKd7PVNglU-2" value="«component»&lt;br&gt;&lt;b&gt;Terraform Modul&lt;br&gt;tf-module-elk-stack&lt;/b&gt;" style="html=1;dropTarget=0;whiteSpace=wrap;" vertex="1" parent="1">
          <mxGeometry x="48" y="250" width="160" height="80" as="geometry" />
        </mxCell>
        <mxCell id="KZDxoFo9gupKd7PVNglU-3" value="" style="shape=module;jettyWidth=8;jettyHeight=4;" vertex="1" parent="KZDxoFo9gupKd7PVNglU-2">
          <mxGeometry x="1" width="20" height="20" relative="1" as="geometry">
            <mxPoint x="-27" y="7" as="offset" />
          </mxGeometry>
        </mxCell>
        <mxCell id="KZDxoFo9gupKd7PVNglU-4" value="" style="group" vertex="1" connectable="0" parent="1">
          <mxGeometry x="48" y="170" width="160" height="70" as="geometry" />
        </mxCell>
        <mxCell id="KZDxoFo9gupKd7PVNglU-5" value="«artefact»&lt;br&gt;&lt;b&gt;Terraform&lt;/b&gt;" style="html=1;dropTarget=0;whiteSpace=wrap;" vertex="1" parent="KZDxoFo9gupKd7PVNglU-4">
          <mxGeometry width="160" height="70" as="geometry" />
        </mxCell>
        <mxCell id="KZDxoFo9gupKd7PVNglU-6" value="" style="shape=note2;boundedLbl=1;whiteSpace=wrap;html=1;size=6;verticalAlign=top;align=left;spacingLeft=5;" vertex="1" parent="KZDxoFo9gupKd7PVNglU-4">
          <mxGeometry x="129.23076923076923" y="8.75" width="18.46153846153846" height="17.5" as="geometry" />
        </mxCell>
        <mxCell id="KZDxoFo9gupKd7PVNglU-7" style="edgeStyle=orthogonalEdgeStyle;rounded=0;orthogonalLoop=1;jettySize=auto;html=1;endArrow=none;endFill=0;entryX=0.385;entryY=1.001;entryDx=0;entryDy=0;entryPerimeter=0;" edge="1" parent="1" target="KZDxoFo9gupKd7PVNglU-10">
          <mxGeometry relative="1" as="geometry">
            <mxPoint x="542" y="275" as="targetPoint" />
            <Array as="points">
              <mxPoint x="369" y="242" />
            </Array>
            <mxPoint x="228" y="242" as="sourcePoint" />
          </mxGeometry>
        </mxCell>
        <mxCell id="KZDxoFo9gupKd7PVNglU-8" value="&lt;span style=&quot;font-size: 12px; text-wrap: wrap; background-color: rgb(251, 251, 251);&quot;&gt;&lt;span style=&quot;text-wrap-style: initial; background-color: rgb(251, 251, 251);&quot;&gt;«&lt;/span&gt;&lt;span style=&quot;font-size: 11px; text-wrap-mode: nowrap; background-color: rgb(255, 255, 255);&quot;&gt;protocol&lt;/span&gt;&lt;span style=&quot;text-wrap-style: initial; background-color: rgb(251, 251, 251);&quot;&gt;»&lt;/span&gt;&lt;br style=&quot;font-size: 11px; text-wrap-mode: nowrap;&quot;&gt;&lt;span style=&quot;font-size: 11px; text-wrap-mode: nowrap; background-color: rgb(255, 255, 255);&quot;&gt;tcp: 6443&lt;/span&gt;&lt;/span&gt;" style="edgeLabel;html=1;align=center;verticalAlign=middle;resizable=0;points=[];" vertex="1" connectable="0" parent="KZDxoFo9gupKd7PVNglU-7">
          <mxGeometry x="-0.2613" y="2" relative="1" as="geometry">
            <mxPoint x="-7" y="-17" as="offset" />
          </mxGeometry>
        </mxCell>
        <mxCell id="KZDxoFo9gupKd7PVNglU-9" value="Verteilungsdiagramm: Terraform Logging" style="shape=umlFrame;whiteSpace=wrap;html=1;pointerEvents=0;recursiveResize=0;container=1;collapsible=0;width=270;height=30;" vertex="1" parent="1">
          <mxGeometry x="17" y="40" width="853" height="390" as="geometry" />
        </mxCell>
        <mxCell id="KZDxoFo9gupKd7PVNglU-10" value="«cluster» Kubernetes Cluster" style="verticalAlign=top;align=center;shape=cube;size=10;direction=south;html=1;boundedLbl=1;spacingLeft=5;whiteSpace=wrap;" vertex="1" parent="KZDxoFo9gupKd7PVNglU-9">
          <mxGeometry x="352" y="20" width="478" height="350" as="geometry" />
        </mxCell>
        <mxCell id="KZDxoFo9gupKd7PVNglU-11" value="«Namespace»&lt;b&gt;&lt;br&gt;elk&lt;/b&gt;" style="html=1;dropTarget=0;whiteSpace=wrap;" vertex="1" parent="KZDxoFo9gupKd7PVNglU-9">
          <mxGeometry x="370" y="60" width="160" height="60" as="geometry" />
        </mxCell>
        <mxCell id="KZDxoFo9gupKd7PVNglU-12" value="" style="shape=module;jettyWidth=8;jettyHeight=4;" vertex="1" parent="KZDxoFo9gupKd7PVNglU-11">
          <mxGeometry x="1" width="20" height="20" relative="1" as="geometry">
            <mxPoint x="-27" y="7" as="offset" />
          </mxGeometry>
        </mxCell>
        <mxCell id="KZDxoFo9gupKd7PVNglU-13" value="«Helm Chart»&lt;div&gt;&lt;b&gt;elasticsearch&lt;/b&gt;&lt;/div&gt;" style="html=1;dropTarget=0;whiteSpace=wrap;" vertex="1" parent="KZDxoFo9gupKd7PVNglU-9">
          <mxGeometry x="584" y="60" width="160" height="60" as="geometry" />
        </mxCell>
        <mxCell id="KZDxoFo9gupKd7PVNglU-20" style="rounded=0;orthogonalLoop=1;jettySize=auto;html=1;exitX=0.836;exitY=-0.007;exitDx=0;exitDy=0;dashed=1;endArrow=open;endFill=0;strokeWidth=1;endSize=9;startSize=6;entryX=0.25;entryY=1;entryDx=0;entryDy=0;exitPerimeter=0;" edge="1" parent="KZDxoFo9gupKd7PVNglU-9" source="KZDxoFo9gupKd7PVNglU-33" target="KZDxoFo9gupKd7PVNglU-13">
          <mxGeometry relative="1" as="geometry">
            <mxPoint x="664" y="150" as="sourcePoint" />
            <mxPoint x="384" y="230" as="targetPoint" />
          </mxGeometry>
        </mxCell>
        <mxCell id="KZDxoFo9gupKd7PVNglU-21" style="rounded=0;orthogonalLoop=1;jettySize=auto;html=1;dashed=1;endArrow=open;endFill=0;strokeWidth=1;endSize=9;startSize=6;entryX=1;entryY=0.5;entryDx=0;entryDy=0;exitX=0;exitY=0.5;exitDx=0;exitDy=0;" edge="1" parent="KZDxoFo9gupKd7PVNglU-9" source="KZDxoFo9gupKd7PVNglU-13" target="KZDxoFo9gupKd7PVNglU-11">
          <mxGeometry relative="1" as="geometry">
            <mxPoint x="530" y="162" as="sourcePoint" />
            <mxPoint x="540" y="200" as="targetPoint" />
          </mxGeometry>
        </mxCell>
        <mxCell id="KZDxoFo9gupKd7PVNglU-30" value="" style="shape=note2;boundedLbl=1;whiteSpace=wrap;html=1;size=6;verticalAlign=top;align=left;spacingLeft=5;" vertex="1" parent="KZDxoFo9gupKd7PVNglU-9">
          <mxGeometry x="724" y="63" width="16" height="20" as="geometry" />
        </mxCell>
        <mxCell id="KZDxoFo9gupKd7PVNglU-35" style="rounded=0;orthogonalLoop=1;jettySize=auto;html=1;exitX=0.5;exitY=0;exitDx=0;exitDy=0;dashed=1;endArrow=open;endFill=0;strokeWidth=1;endSize=9;startSize=6;entryX=0.5;entryY=1;entryDx=0;entryDy=0;" edge="1" parent="KZDxoFo9gupKd7PVNglU-9" source="KZDxoFo9gupKd7PVNglU-33" target="KZDxoFo9gupKd7PVNglU-11">
          <mxGeometry relative="1" as="geometry">
            <mxPoint x="674" y="160" as="sourcePoint" />
            <mxPoint x="674" y="130" as="targetPoint" />
          </mxGeometry>
        </mxCell>
        <mxCell id="KZDxoFo9gupKd7PVNglU-38" value="" style="group" vertex="1" connectable="0" parent="KZDxoFo9gupKd7PVNglU-9">
          <mxGeometry x="439" y="160" width="160" height="60" as="geometry" />
        </mxCell>
        <mxCell id="KZDxoFo9gupKd7PVNglU-33" value="«Helm Chart»&lt;div&gt;&lt;b&gt;kibana&lt;/b&gt;&lt;/div&gt;" style="html=1;dropTarget=0;whiteSpace=wrap;" vertex="1" parent="KZDxoFo9gupKd7PVNglU-38">
          <mxGeometry width="160" height="60" as="geometry" />
        </mxCell>
        <mxCell id="KZDxoFo9gupKd7PVNglU-34" value="" style="shape=note2;boundedLbl=1;whiteSpace=wrap;html=1;size=6;verticalAlign=top;align=left;spacingLeft=5;" vertex="1" parent="KZDxoFo9gupKd7PVNglU-38">
          <mxGeometry x="141" y="3" width="16" height="20" as="geometry" />
        </mxCell>
        <mxCell id="KZDxoFo9gupKd7PVNglU-39" value="" style="group" vertex="1" connectable="0" parent="KZDxoFo9gupKd7PVNglU-9">
          <mxGeometry x="411" y="230" width="160" height="60" as="geometry" />
        </mxCell>
        <mxCell id="KZDxoFo9gupKd7PVNglU-36" value="«Helm Chart»&lt;div&gt;&lt;b&gt;filebeat&lt;/b&gt;&lt;/div&gt;" style="html=1;dropTarget=0;whiteSpace=wrap;" vertex="1" parent="KZDxoFo9gupKd7PVNglU-39">
          <mxGeometry width="160" height="60" as="geometry" />
        </mxCell>
        <mxCell id="KZDxoFo9gupKd7PVNglU-37" value="" style="shape=note2;boundedLbl=1;whiteSpace=wrap;html=1;size=6;verticalAlign=top;align=left;spacingLeft=5;" vertex="1" parent="KZDxoFo9gupKd7PVNglU-39">
          <mxGeometry x="141" y="3" width="16" height="20" as="geometry" />
        </mxCell>
        <mxCell id="KZDxoFo9gupKd7PVNglU-40" value="" style="group" vertex="1" connectable="0" parent="KZDxoFo9gupKd7PVNglU-9">
          <mxGeometry x="375" y="300" width="160" height="60" as="geometry" />
        </mxCell>
        <mxCell id="KZDxoFo9gupKd7PVNglU-41" value="«Helm Chart»&lt;div&gt;&lt;b&gt;filebeat&lt;/b&gt;&lt;/div&gt;" style="html=1;dropTarget=0;whiteSpace=wrap;" vertex="1" parent="KZDxoFo9gupKd7PVNglU-40">
          <mxGeometry width="160" height="60" as="geometry" />
        </mxCell>
        <mxCell id="KZDxoFo9gupKd7PVNglU-42" value="" style="shape=note2;boundedLbl=1;whiteSpace=wrap;html=1;size=6;verticalAlign=top;align=left;spacingLeft=5;" vertex="1" parent="KZDxoFo9gupKd7PVNglU-40">
          <mxGeometry x="141" y="3" width="16" height="20" as="geometry" />
        </mxCell>
        <mxCell id="KZDxoFo9gupKd7PVNglU-45" style="rounded=0;orthogonalLoop=1;jettySize=auto;html=1;dashed=1;endArrow=open;endFill=0;strokeWidth=1;endSize=9;startSize=6;exitX=0.127;exitY=0.017;exitDx=0;exitDy=0;exitPerimeter=0;" edge="1" parent="KZDxoFo9gupKd7PVNglU-9" source="KZDxoFo9gupKd7PVNglU-41">
          <mxGeometry relative="1" as="geometry">
            <mxPoint x="396" y="301" as="sourcePoint" />
            <mxPoint x="394.5" y="120" as="targetPoint" />
          </mxGeometry>
        </mxCell>
        <mxCell id="KZDxoFo9gupKd7PVNglU-46" value="" style="group" vertex="1" connectable="0" parent="KZDxoFo9gupKd7PVNglU-9">
          <mxGeometry x="613" y="270" width="160" height="60" as="geometry" />
        </mxCell>
        <mxCell id="KZDxoFo9gupKd7PVNglU-47" value="«Helm Chart»&lt;div&gt;&lt;b&gt;filebeat&lt;/b&gt;&lt;/div&gt;" style="html=1;dropTarget=0;whiteSpace=wrap;" vertex="1" parent="KZDxoFo9gupKd7PVNglU-46">
          <mxGeometry width="160" height="60" as="geometry" />
        </mxCell>
        <mxCell id="KZDxoFo9gupKd7PVNglU-48" value="" style="shape=note2;boundedLbl=1;whiteSpace=wrap;html=1;size=6;verticalAlign=top;align=left;spacingLeft=5;" vertex="1" parent="KZDxoFo9gupKd7PVNglU-46">
          <mxGeometry x="141" y="3" width="16" height="20" as="geometry" />
        </mxCell>
        <mxCell id="KZDxoFo9gupKd7PVNglU-49" value="" style="group" vertex="1" connectable="0" parent="KZDxoFo9gupKd7PVNglU-9">
          <mxGeometry x="623" y="280" width="160" height="60" as="geometry" />
        </mxCell>
        <mxCell id="KZDxoFo9gupKd7PVNglU-50" value="«Helm Chart»&lt;div&gt;&lt;b&gt;filebeat&lt;/b&gt;&lt;/div&gt;" style="html=1;dropTarget=0;whiteSpace=wrap;" vertex="1" parent="KZDxoFo9gupKd7PVNglU-49">
          <mxGeometry width="160" height="60" as="geometry" />
        </mxCell>
        <mxCell id="KZDxoFo9gupKd7PVNglU-51" value="" style="shape=note2;boundedLbl=1;whiteSpace=wrap;html=1;size=6;verticalAlign=top;align=left;spacingLeft=5;" vertex="1" parent="KZDxoFo9gupKd7PVNglU-49">
          <mxGeometry x="141" y="3" width="16" height="20" as="geometry" />
        </mxCell>
        <mxCell id="KZDxoFo9gupKd7PVNglU-52" value="" style="group" vertex="1" connectable="0" parent="KZDxoFo9gupKd7PVNglU-9">
          <mxGeometry x="633" y="290" width="160" height="60" as="geometry" />
        </mxCell>
        <mxCell id="KZDxoFo9gupKd7PVNglU-53" value="«Helm Chart»&lt;div&gt;&lt;b&gt;filebeat&lt;/b&gt;&lt;/div&gt;" style="html=1;dropTarget=0;whiteSpace=wrap;" vertex="1" parent="KZDxoFo9gupKd7PVNglU-52">
          <mxGeometry width="160" height="60" as="geometry" />
        </mxCell>
        <mxCell id="KZDxoFo9gupKd7PVNglU-54" value="" style="shape=note2;boundedLbl=1;whiteSpace=wrap;html=1;size=6;verticalAlign=top;align=left;spacingLeft=5;" vertex="1" parent="KZDxoFo9gupKd7PVNglU-52">
          <mxGeometry x="141" y="3" width="16" height="20" as="geometry" />
        </mxCell>
        <mxCell id="KZDxoFo9gupKd7PVNglU-55" value="" style="group" vertex="1" connectable="0" parent="KZDxoFo9gupKd7PVNglU-9">
          <mxGeometry x="643" y="300" width="160" height="60" as="geometry" />
        </mxCell>
        <mxCell id="KZDxoFo9gupKd7PVNglU-56" value="«YAML»&lt;div&gt;&lt;b&gt;files/values.yaml&lt;/b&gt;&lt;/div&gt;" style="html=1;dropTarget=0;whiteSpace=wrap;" vertex="1" parent="KZDxoFo9gupKd7PVNglU-55">
          <mxGeometry width="160" height="60" as="geometry" />
        </mxCell>
        <mxCell id="KZDxoFo9gupKd7PVNglU-57" value="" style="shape=note2;boundedLbl=1;whiteSpace=wrap;html=1;size=6;verticalAlign=top;align=left;spacingLeft=5;" vertex="1" parent="KZDxoFo9gupKd7PVNglU-55">
          <mxGeometry x="141" y="3" width="16" height="20" as="geometry" />
        </mxCell>
        <mxCell id="KZDxoFo9gupKd7PVNglU-58" style="rounded=0;orthogonalLoop=1;jettySize=auto;html=1;exitX=1;exitY=0.5;exitDx=0;exitDy=0;dashed=1;endArrow=open;endFill=0;strokeWidth=1;endSize=9;startSize=6;entryX=0.5;entryY=0;entryDx=0;entryDy=0;" edge="1" parent="KZDxoFo9gupKd7PVNglU-9" source="KZDxoFo9gupKd7PVNglU-33" target="KZDxoFo9gupKd7PVNglU-47">
          <mxGeometry relative="1" as="geometry">
            <mxPoint x="583" y="170" as="sourcePoint" />
            <mxPoint x="634" y="130" as="targetPoint" />
          </mxGeometry>
        </mxCell>
        <mxCell id="KZDxoFo9gupKd7PVNglU-59" style="rounded=0;orthogonalLoop=1;jettySize=auto;html=1;exitX=0.923;exitY=1.017;exitDx=0;exitDy=0;dashed=1;endArrow=open;endFill=0;strokeWidth=1;endSize=9;startSize=6;entryX=0.75;entryY=0;entryDx=0;entryDy=0;exitPerimeter=0;" edge="1" parent="KZDxoFo9gupKd7PVNglU-9" source="KZDxoFo9gupKd7PVNglU-13" target="KZDxoFo9gupKd7PVNglU-47">
          <mxGeometry relative="1" as="geometry">
            <mxPoint x="609" y="200" as="sourcePoint" />
            <mxPoint x="703" y="280" as="targetPoint" />
          </mxGeometry>
        </mxCell>
        <mxCell id="KZDxoFo9gupKd7PVNglU-60" style="rounded=0;orthogonalLoop=1;jettySize=auto;html=1;exitX=1;exitY=0.5;exitDx=0;exitDy=0;dashed=1;endArrow=open;endFill=0;strokeWidth=1;endSize=9;startSize=6;entryX=0;entryY=0.25;entryDx=0;entryDy=0;" edge="1" parent="KZDxoFo9gupKd7PVNglU-9" source="KZDxoFo9gupKd7PVNglU-36" target="KZDxoFo9gupKd7PVNglU-47">
          <mxGeometry relative="1" as="geometry">
            <mxPoint x="609" y="200" as="sourcePoint" />
            <mxPoint x="703" y="280" as="targetPoint" />
          </mxGeometry>
        </mxCell>
        <mxCell id="KZDxoFo9gupKd7PVNglU-61" style="rounded=0;orthogonalLoop=1;jettySize=auto;html=1;exitX=1;exitY=0.5;exitDx=0;exitDy=0;dashed=1;endArrow=open;endFill=0;strokeWidth=1;endSize=9;startSize=6;entryX=-0.004;entryY=0.602;entryDx=0;entryDy=0;entryPerimeter=0;" edge="1" parent="KZDxoFo9gupKd7PVNglU-9" source="KZDxoFo9gupKd7PVNglU-41" target="KZDxoFo9gupKd7PVNglU-47">
          <mxGeometry relative="1" as="geometry">
            <mxPoint x="581" y="270" as="sourcePoint" />
            <mxPoint x="623" y="295" as="targetPoint" />
          </mxGeometry>
        </mxCell>
        <mxCell id="KZDxoFo9gupKd7PVNglU-44" style="rounded=0;orthogonalLoop=1;jettySize=auto;html=1;exitX=0.086;exitY=0.002;exitDx=0;exitDy=0;dashed=1;endArrow=open;endFill=0;strokeWidth=1;endSize=9;startSize=6;exitPerimeter=0;" edge="1" parent="1" source="KZDxoFo9gupKd7PVNglU-36">
          <mxGeometry relative="1" as="geometry">
            <mxPoint x="442" y="271" as="sourcePoint" />
            <mxPoint x="441" y="160" as="targetPoint" />
          </mxGeometry>
        </mxCell>
      </root>
    </mxGraphModel>
  </diagram>
</mxfile>
